<svg width="18" height="18" viewBox="0 0 18 18" fill="none" xmlns="http://www.w3.org/2000/svg">
<path d="M9 0C7.21997 0 5.47991 0.52784 3.99987 1.51677C2.51983 2.50571 1.36628 3.91131 0.685088 5.55585C0.00389951 7.20038 -0.17433 9.00998 0.172937 10.7558C0.520203 12.5016 1.37737 14.1053 2.63604 15.364C3.89472 16.6226 5.49836 17.4798 7.24419 17.8271C8.99002 18.1743 10.7996 17.9961 12.4442 17.3149C14.0887 16.6337 15.4943 15.4802 16.4832 14.0001C17.4722 12.5201 18 10.78 18 9C18 6.61305 17.0518 4.32387 15.364 2.63604C13.6761 0.948211 11.387 0 9 0ZM9 3.992C9.30142 3.992 9.59607 4.08138 9.84669 4.24884C10.0973 4.4163 10.2926 4.65432 10.408 4.93279C10.5233 5.21127 10.5535 5.51769 10.4947 5.81332C10.4359 6.10894 10.2908 6.3805 10.0776 6.59363C9.8645 6.80677 9.59295 6.95191 9.29732 7.01072C9.00169 7.06952 8.69527 7.03934 8.41679 6.92399C8.13832 6.80864 7.9003 6.61331 7.73284 6.36269C7.56538 6.11207 7.476 5.81742 7.476 5.516C7.476 5.11181 7.63657 4.72417 7.92237 4.43837C8.20818 4.15256 8.59581 3.992 9 3.992ZM11.032 13.21C11.0317 13.3253 10.9858 13.4358 10.9043 13.5173C10.8228 13.5988 10.7123 13.6447 10.597 13.645H7.4C7.28463 13.645 7.17399 13.5992 7.09241 13.5176C7.01083 13.436 6.965 13.3254 6.965 13.21V12.339C6.96461 12.2816 6.97556 12.2246 6.99723 12.1715C7.0189 12.1183 7.05087 12.0699 7.09129 12.0291C7.13171 11.9883 7.17979 11.9559 7.23277 11.9338C7.28574 11.9116 7.34258 11.9001 7.4 11.9H7.835V9.581H7.4C7.28472 9.58074 7.17422 9.53482 7.0927 9.4533C7.01118 9.37178 6.96527 9.26129 6.965 9.146V8.275C6.96527 8.15971 7.01118 8.04922 7.0927 7.9677C7.17422 7.88618 7.28472 7.84026 7.4 7.84H9.723C9.83829 7.84026 9.94878 7.88618 10.0303 7.9677C10.1118 8.04922 10.1577 8.15971 10.158 8.275V11.9H10.6C10.7153 11.9003 10.8258 11.9462 10.9073 12.0277C10.9888 12.1092 11.0347 12.2197 11.035 12.335L11.032 13.21Z" fill="#0097C2"/>
</svg>
